PathFileType	4	(X/Y/Z)	AB06\squats_1.trc
DataRate	CameraRate	NumFrames	NumMarkers	Units	OrigDataRate	OrigDataStartFrame	OrigNumFrames
200.000000	200.000000	6	35	mm	200.000000	98	392
Frame#	Time	C7			LSHO			LASI			RASI			LPSI			RPSI			LGTR			RGTR			LTHC			LTHL			LTHR			LKNE			LMKNE			LSHC			LSHL			LSHR			LANK			LMANK			LMT1			LMT5			LCAL			RTHC			RTHL			RTHR			RKNE			RMKNE			RSHC			RSHL			RSHR			RANK			RMANK			RMT1			RMT5			RCAL			STRN			
		X1	Y1	Z1	X2	Y2	Z2	X3	Y3	Z3	X4	Y4	Z4	X5	Y5	Z5	X6	Y6	Z6	X7	Y7	Z7	X8	Y8	Z8	X9	Y9	Z9	X10	Y10	Z10	X11	Y11	Z11	X12	Y12	Z12	X13	Y13	Z13	X14	Y14	Z14	X15	Y15	Z15	X16	Y16	Z16	X17	Y17	Z17	X18	Y18	Z18	X19	Y19	Z19	X20	Y20	Z20	X21	Y21	Z21	X22	Y22	Z22	X23	Y23	Z23	X24	Y24	Z24	X25	Y25	Z25	X26	Y26	Z26	X27	Y27	Z27	X28	Y28	Z28	X29	Y29	Z29	X30	Y30	Z30	X31	Y31	Z31	X32	Y32	Z32	X33	Y33	Z33	X34	Y34	Z34	X35	Y35	Z35	

99	45.395	-3640.297566971414	1300.233011525522	2500.745094917694	-3707.914594433548	1207.805385626605	2649.227287012266	-3439.566673793646	809.984428900606	2624.457750715942	-3434.968310291849	817.6291382471176	2367.121331325417	-3258.287125425979	851.6894528088782	2547.758090115292	-3257.728169143002	857.595797834914	2449.621113467198	-3367.540649470936	780.8896208548468	2694.202046912434	-3380.195960076783	815.7071886346156	2321.431148902961	-3451.218382930969	712.8447077301224	2733.391122765584	-3591.15042141979	695.3001393826223	2690.766547661774	-3487.108287410348	547.1206733556803	2732.065164362934	-3701.608287599161	496.196700907483	2820.659422128489	-3742.107692349023	480.9563678818117	2713.533006148064	-3601.482007594878	438.9682745739626	2805.3683373148	-3581.197881608577	206.8009088788284	2762.811703327202	-3493.966725461091	251.3896356209729	2731.931946114818	-3463.555180239515	105.9916786057127	2769.920921954922	-3494.806004460334	114.7382679197173	2686.617980514208	-3618.899808470176	48.61704317982309	2713.186593437616	-3568.851006726887	50.70015591240567	2827.946921997967	-3394.599228780057	80.63732241490192	2717.597436471203	-3521.122574448942	536.713833874565	2269.272534609142	-3482.594387548349	681.6379310326091	2246.656381863089	-3596.945292949526	682.4860058353332	2350.480963970747	-3717.712587789073	502.5834481831201	2202.737530382723	-3747.006950079221	486.6036532065361	2310.484975436092	-3516.67958444507	252.598312005635	2275.379128910421	-3634.374870915348	438.8593139510381	2197.044620046673	-3604.799460626334	207.7011625794045	2253.422464339149	-3494.184437184732	111.4401022428308	2235.017679207813	-3527.669108100316	117.5459907456381	2319.342227846787	-3643.292030208355	51.02395317783436	2300.618664975468	-3609.837246744522	37.73854992884825	2181.322995769613	-3429.024442832568	81.72381280855774	2278.186968565093	-3646.641151847594	994.2241445667235	2503.536124083151	
100	45.4	-3640.738392730413	1295.534015688058	2500.83772232694	-3708.144727071102	1202.867795914816	2649.317951780169	-3438.417867254275	806.2727615852361	2624.490346904691	-3433.839507375434	814.0358719057454	2367.003736336594	-3257.193641212335	848.1344531587202	2547.65424135556	-3256.632522105238	854.077888018602	2449.582484632934	-3366.383854113215	777.7208160428879	2694.296032095464	-3379.005567885177	812.5215803459555	2321.374193258677	-3450.00119812552	710.4267678131287	2733.256660500151	-3590.037003258306	693.8853342503584	2690.598354210704	-3487.002056676064	545.0295928467274	2732.362844607306	-3701.717490394858	495.8267463263973	2821.205169091616	-3742.572509995703	480.628262114837	2713.95618678032	-3601.841465009748	438.5913402046848	2805.821934607055	-3581.337700999653	206.5445358293665	2762.956112154195	-3494.150189261236	251.2801623206774	2732.109597848878	-3463.619301667135	105.9108742981496	2769.887238398762	-3494.877890906818	114.6959128179083	2686.598837491714	-3618.894216276811	48.63002262568104	2713.20396972908	-3568.844697834164	50.70492452535023	2827.97175218975	-3394.596538239975	80.58633579011868	2717.522650759906	-3521.157635780742	534.9579284064486	2268.688452927069	-3481.639272396961	679.6608636664113	2246.497409946467	-3595.912508971136	681.0030754052544	2350.403306349661	-3717.90161627298	502.3085810631441	2202.198508243384	-3747.451659768978	486.2799280779213	2310.028810601682	-3516.869768182474	252.5158873685848	2275.245550398312	-3634.720221396824	438.5120787687255	2196.611188508192	-3604.937669303322	207.518872622298	2253.234290140289	-3494.194411931013	111.3619268951828	2235.000652647845	-3527.727181241592	117.5310626081905	2319.331825215967	-3643.278401685182	51.04191755118212	2300.600069529788	-3609.820556473161	37.71393877132343	2181.294905378469	-3429.029604139342	81.72707594455321	2278.230342156899	-3646.552783033657	989.4076035948066	2503.530426873724	
101	45.405	-3641.161135209237	1290.858975197171	2500.928839162389	-3708.35497132738	1197.951566210378	2649.405484748051	-3437.284179197816	802.5876670422755	2624.521766931282	-3432.727581750107	810.4591423455447	2366.879345656083	-3256.114573963254	844.5813624165392	2547.5413144369	-3255.553126774292	850.5602173125715	2449.537378803222	-3365.25054170169	774.554952239269	2694.375055182255	-3377.832958600799	809.3422080210387	2321.311829730056	-3448.791894524933	708.0157893578895	2733.115919639593	-3588.921603871551	692.4686929324205	2690.425943651974	-3486.888098613577	542.9517322462416	2732.662687876069	-3701.80024101254	495.4674826082235	2821.756743191171	-3743.026191751983	480.3121420651763	2714.389794183565	-3602.179590088472	438.219205704066	2806.282011805937	-3581.468127158365	206.2942116290825	2763.10520388318	-3494.326653927461	251.1744754746526	2732.289903660253	-3463.675440604084	105.8321406058971	2769.851572341805	-3494.945752673797	114.6554933754745	2686.579563310936	-3618.887437529856	48.64389773550564	2713.222892793897	-3568.837233780533	50.71007929581122	2827.996732978536	-3394.593596748181	80.53769743088742	2717.446748844326	-3521.188278980228	533.212199302259	2268.085632218735	-3480.69212324289	677.6902856604064	2246.327319352899	-3594.885889860408	679.5120881892593	2350.312903717285	-3718.075826881025	502.0357988416009	2201.638659640316	-3747.885685739404	485.963520991439	2309.547988189254	-3517.054839591897	252.4324107958797	2275.10143635349	-3635.050820628797	438.1650180082156	2196.157816152418	-3605.069153440823	207.3372730886331	2253.036345553809	-3494.201740496487	111.2862571537053	2234.978914988355	-3527.780672747272	117.5188903619449	2319.315657954628	-3643.263511864966	51.06084990544384	2300.578705068331	-3609.802740134825	37.68650028831577	2181.264249553783	-3429.033277714743	81.72780676101009	2278.272198003251	-3646.460552486821	984.6210429125441	2503.509798591573	
102	45.41	-3641.565785771889	1286.208794871927	2501.018661873156	-3708.545927799575	1193.057849217441	2649.489525870496	-3436.165550261667	798.9302878893811	2624.55128669804	-3431.632427133915	806.8991176146429	2366.748489942612	-3255.049563157148	841.0305837054007	2547.41989467549	-3254.489606874786	847.0428861803184	2449.486237986288	-3364.140670901963	771.3924582270711	2694.439556375524	-3376.67818974817	806.1686124327038	2321.24407313585	-3447.590756378583	705.611835262025	2732.969566797829	-3587.804666048081	691.050153802943	2690.250002514529	-3486.766789770813	540.8872017524903	2732.964773605695	-3701.857845672702	495.1185421705921	2822.313069564077	-3743.468450589379	480.0079586984472	2714.832950181831	-3602.497282065866	437.8520849318146	2806.747890898981	-3581.589142233231	206.0502849331503	2763.258890819702	-3494.496348277399	251.0727658417195	2732.472626977563	-3463.723846995063	105.7556860746888	2769.813965249946	-3495.009577510797	114.6171124963611	2686.560161793604	-3618.879571893004	48.65850575030569	2713.243321811688	-3568.828571305716	50.71561353186632	2828.021616113689	-3394.590380752895	80.49170255956282	2717.370252152308	-3521.215012220484	531.4753503026612	2267.466819648393	-3479.751984667578	675.724172849369	2246.146538771665	-3593.866689514933	678.0144151288328	2350.208479126709	-3718.235762157952	501.7643689747468	2201.057976173573	-3748.310106894286	485.6548920226201	2309.042566067643	-3517.23489377074	252.3482149359619	2274.947349715113	-3635.367432975642	437.8181830050812	2195.684786659029	-3605.194003726132	207.156285342117	2252.828983993047	-3494.206690464264	111.2132046812189	2234.952925215724	-3527.829580128664	117.5096502019426	2319.293863044346	-3643.247463489835	51.08069799056116	2300.554344274694	-3609.783875660718	37.65654126701153	2181.231062154518	-3429.03558873703	81.72598971904837	2278.312447941677	-3646.363336980151	979.865734978639	2503.474275939874	
103	45.415	-3641.952397224601	1281.584262562343	2501.10733242345	-3708.718330674052	1188.187724581865	2649.569701027651	-3435.061874854476	795.3014833109287	2624.578189422049	-3430.554023454111	803.3559150822438	2366.611538129708	-3253.998236724987	837.4825298304717	2547.29055753956	-3253.441600990825	843.526065074944	2449.429457192282	-3363.053887070425	768.2338569055711	2694.490099420334	-3375.541365078757	803.0003662592306	2321.171000811193	-3446.398002061173	703.2149361432406	2732.818264119537	-3586.68659536019	689.6296782257394	2690.07114002759	-3486.638564147451	538.8360842845078	2733.269026523826	-3701.891777828268	494.7795378753564	2822.872899014446	-3743.898903390527	479.7155977043564	2715.284631358351	-3602.795475615565	437.4902418019228	2807.218682194982	-3581.700753882763	205.8130492375356	2763.417021166885	-3494.659479762779	250.9751705695886	2732.657396949354	-3463.7648693002	105.6816686230693	2769.774449347041	-3495.069435059501	114.5808303216389	2686.540663254324	-3618.87073884383	48.67368732339648	2713.265194157975	-3568.818692311563	50.72150999830855	2828.04615769763	-3394.586868456533	80.44858636847242	2717.293681998274	-3521.238374617951	529.7461560093116	2266.834824768713	-3478.818016703918	673.7605962627151	2245.955689530466	-3592.856110206028	676.511415632969	2350.089135606611	-3718.381992825839	501.4936101448972	2200.456838579847	-3748.725963852918	485.3544406175388	2308.512969205914	-3517.410021671421	252.2636327070088	2274.783889150619	-3635.670908586215	437.4716027805557	2195.192593389302	-3605.312360800444	206.9758669926969	2252.612695030087	-3494.209545364167	111.1427952523328	2234.923116350296	-3527.873954345344	117.5034450939793	2319.26663240057	-3643.230376638452	51.10141128442135	2300.526758070689	-3609.76405874277	37.62441116853345	2181.19539397101	-3429.036654689496	81.72164144742615	2278.35100507469	-3646.260006787752	975.1427043659662	2503.424077867213	
104	45.42	-3642.32108393359	1276.986052342677	2501.194906535934	-3708.873032802363	1183.342202570539	2649.645619988937	-3433.973004717974	791.7018019804101	2624.601789537632	-3429.49244832911	799.8296090777794	2366.4688954151	-3252.960220702249	833.9376196974607	2547.153856991556	-3252.408773408636	840.0100003057956	2449.367377160188	-3361.989532573649	765.0797587065674	2694.527354938944	-3374.422639428132	799.837093237959	2321.092762605878	-3445.213799656242	700.8251039702859	2732.662653963749	-3585.567772408527	688.2072535180794	2689.889873657796	-3486.503922369978	536.798443086761	2733.575235260499	-3701.903663275975	494.4500698568611	2823.434838628176	-3744.317100985381	479.4348724870158	2715.743696134044	-3603.075137456025	437.1339841830301	2807.693329788402	-3581.803016071054	205.5827396637641	2763.579376784559	-3494.816238072799	250.8817708209536	2732.843723516787	-3463.798945739039	105.610196733255	2769.733053201604	-3495.125474773924	114.546667593419	2686.521123793434	-3618.861075287048	48.6892888832763	2713.288427154169	-3568.807605527415	50.72773975433589	2828.070125157401	-3394.583042860135	80.40852161805044	2717.217549193381	-3521.258942910989	528.0234989589181	2266.192450906699	-3477.889553620131	671.7977876716666	2245.755583621627	-3591.855291216713	675.004385665935	2349.954413042869	-3718.515137575997	501.2229026806522	2199.836032227994	-3749.134240328065	485.062477138523	2307.960010465154	-3517.580316877621	252.1789919879083	2274.611682527199	-3635.962190032783	437.1252825814524	2194.68193974906	-3605.424418823796	206.7960114602194	2252.388110920189	-3494.210599631736	111.0749750843049	2234.889891607103	-3527.913899295953	117.5002950554619	2319.234214098953	-3643.21238573705	51.1229423739203	2300.495725515671	-3609.743401269152	37.5904973620876	2181.15731464305	-3429.036583249899	81.71480572317114	2278.387788054283	-3646.149454037738	970.4527244942535	2503.359617118302	
